<?xml version="1.0" encoding="UTF-8"?>
<!-- Arjun Agrawal · brand mark, vector master. Monogram traced from the supplied artwork and fitted to lines and cubic curves; wordmark set in Cinzel (SIL Open Font License) converted to outlines. -->
<svg xmlns="http://www.w3.org/2000/svg" viewBox="0.0 300.0 760.0 78.0" role="img" aria-label="Arjun Agrawal"><title>Arjun Agrawal</title><path fill="#F4EFE4" d="M33 302.7 58.9 362.5H49L30.2 313.4ZM14.9 356.8Q14.3 358.5 14.7 359.7Q15.1 360.9 16.1 361.5Q17.1 362.2 18.1 362.2H18.8V363H1.6V362.2Q1.6 362.2 1.9 362.2Q2.3 362.2 2.3 362.2Q4.3 362.2 6.3 360.9Q8.4 359.7 9.7 356.8ZM33 302.7 33.7 310 12.6 362.7H7.1L28.8 312.1Q28.9 311.9 29.4 310.8Q30 309.6 30.6 308Q31.2 306.4 31.7 304.9Q32.2 303.4 32.2 302.7ZM43.9 341V343.9H18.1V341ZM46.8 356.8H56.3Q57.7 359.7 59.8 360.9Q61.8 362.2 63.8 362.2Q63.8 362.2 64.1 362.2Q64.4 362.2 64.4 362.2V363H42.9V362.2H43.6Q45.3 362.2 46.6 360.8Q47.8 359.4 46.8 356.8ZM89.6 314H99.2Q102.4 314 105.1 314.8Q107.8 315.7 109.8 317.3Q111.7 319 112.8 321.4Q113.9 323.9 113.9 327.2Q113.9 330.4 112.5 333.4Q111 336.5 108.4 338.4Q105.7 340.4 102.2 340.5Q103.7 341.1 105.3 342.7Q106.8 344.3 107.9 345.9Q107.9 345.9 108.8 347.2Q109.7 348.4 111 350.3Q112.3 352.1 113.7 354Q115.1 355.8 116.1 357Q117.5 358.7 118.9 359.8Q120.2 361 121.8 361.6Q123.4 362.3 125.3 362.3V363H120.4Q117.1 363 114.5 362.1Q111.9 361.2 110 359.7Q108.1 358.2 106.8 356.5Q106.5 356 105.6 354.7Q104.8 353.3 103.7 351.6Q102.6 349.9 101.5 348.2Q100.5 346.6 99.7 345.3Q99 344.1 98.7 343.8Q97.6 341.9 96.1 340.5Q94.6 339.1 92.9 339.1V338.4Q92.9 338.4 93.9 338.4Q94.8 338.4 96.1 338.4Q97.9 338.3 100 337.7Q102 337.2 103.8 335.6Q105.5 333.9 106.3 330.8Q106.5 330.1 106.6 329.1Q106.7 328 106.7 326.9Q106.6 322.1 104.2 319.4Q101.9 316.7 98.1 316.5Q96.5 316.4 94.8 316.4Q93 316.4 91.7 316.4Q90.5 316.4 90.3 316.4Q90.3 316.4 90.2 315.8Q90 315.2 89.8 314.6Q89.6 314 89.6 314ZM90.6 314V363H84V314ZM84.3 357.9V363H78.7V362.3Q78.7 362.3 79.1 362.3Q79.6 362.3 79.6 362.3Q81.4 362.3 82.7 361Q84 359.7 84 357.9ZM84.3 319.1H84Q84 317.3 82.7 316Q81.4 314.7 79.6 314.7Q79.6 314.7 79.1 314.7Q78.7 314.7 78.7 314.7V314H84.3ZM90.3 357.9H90.6Q90.6 359.7 91.9 361Q93.2 362.3 95 362.3Q95.1 362.3 95.5 362.3Q95.9 362.3 95.9 362.3V363H90.3ZM153.7 314V362.3Q153.7 365.5 152.5 368.3Q151.3 371.1 149.3 373Q147.3 375 144.6 376.1Q142 377.1 139 377V376.4Q141.5 375.4 143.3 373.2Q145.2 371 146.2 368.1Q147.1 365.2 147.1 362.1V314ZM147.4 319.1H147.1Q147.1 317.3 145.8 316Q144.5 314.7 142.7 314.7Q142.7 314.7 142.2 314.7Q141.8 314.7 141.8 314.7V314H147.4ZM153.4 319.1V314H159V314.7Q159 314.7 158.6 314.7Q158.1 314.7 158.1 314.7Q156.3 314.7 155 316Q153.7 317.3 153.7 319.1ZM189.1 314V344.8Q189.1 349.8 190.9 353.6Q192.7 357.4 195.9 359.5Q199.2 361.5 203.5 361.5Q208.1 361.5 211.5 359.6Q214.9 357.6 216.7 354Q218.6 350.5 218.6 345.7V314H222.4V345.6Q222.4 351.1 220.1 355.2Q217.7 359.4 213.3 361.7Q209 364 203.1 364Q196.7 364 192.1 361.7Q187.5 359.4 185 355.3Q182.6 351.2 182.6 345.6V314ZM182.8 314V318.2H182.6Q182.6 316.7 181.5 315.7Q180.4 314.7 178.9 314.7Q178.9 314.7 178.3 314.7Q177.8 314.7 177.8 314.7V314ZM193.9 314V314.7Q193.9 314.7 193.4 314.7Q192.8 314.7 192.8 314.7Q191.3 314.7 190.2 315.7Q189.1 316.7 189.1 318.2H189V314ZM218.8 314V318.2H218.6Q218.6 316.7 217.5 315.7Q216.4 314.7 214.9 314.7Q214.9 314.7 214.3 314.7Q213.7 314.7 213.7 314.7V314ZM227.2 314V314.7Q227.2 314.7 226.7 314.7Q226.1 314.7 226.1 314.7Q224.6 314.7 223.5 315.7Q222.4 316.7 222.4 318.2H222.3V314ZM248.7 312.9 290.7 356.1 291.4 364 249.4 320.9ZM248.9 358V363H243.1V362.3Q243.1 362.3 243.7 362.3Q244.3 362.3 244.4 362.3Q246.2 362.3 247.4 361Q248.7 359.8 248.7 358ZM254.1 358Q254.1 359.8 255.4 361Q256.7 362.3 258.4 362.3Q258.5 362.3 259.1 362.3Q259.7 362.3 259.7 362.3V363H253.9V358ZM248.7 312.9 254.1 319.1 254.1 363H248.7V321.7Q248.7 318 248.3 315.5Q248 312.9 248 312.9ZM291.3 314V355Q291.3 357.4 291.5 359.5Q291.7 361.5 291.8 362.8Q292 364 292 364H291.4L285.9 357.8V314ZM296.9 314V314.7Q296.9 314.7 296.3 314.7Q295.7 314.7 295.7 314.7Q293.9 314.7 292.6 315.9Q291.4 317.1 291.3 319H291.1V314ZM280.3 314H286.1V319H285.9Q285.9 317.1 284.6 315.9Q283.4 314.7 281.6 314.7Q281.6 314.7 281 314.7Q280.3 314.7 280.3 314.7ZM364 302.7 389.9 362.5H380L361.2 313.4ZM345.9 356.8Q345.3 358.5 345.7 359.7Q346.1 360.9 347.1 361.5Q348.1 362.2 349.1 362.2H349.8V363H332.6V362.2Q332.6 362.2 332.9 362.2Q333.3 362.2 333.3 362.2Q335.3 362.2 337.3 360.9Q339.4 359.7 340.7 356.8ZM364 302.7 364.7 310 343.6 362.7H338.1L359.8 312.1Q359.9 311.9 360.4 310.8Q361 309.6 361.6 308Q362.2 306.4 362.7 304.9Q363.2 303.4 363.2 302.7ZM374.9 341V343.9H349.1V341ZM377.8 356.8H387.3Q388.7 359.7 390.8 360.9Q392.8 362.2 394.8 362.2Q394.8 362.2 395.1 362.2Q395.4 362.2 395.4 362.2V363H373.9V362.2H374.6Q376.3 362.2 377.6 360.8Q378.8 359.4 377.8 356.8ZM452.6 343.4V354.9Q451 357.1 448.1 359.1Q445.1 361.2 441 362.6Q436.8 364 431.4 364Q423.8 363.9 418 360.8Q412.2 357.6 409 351.9Q405.8 346.2 405.8 338.5Q405.8 330.8 409 325.1Q412.2 319.3 418 316.2Q423.8 313 431.5 313Q435.3 313 438.6 313.6Q441.9 314.2 444.6 315.2Q447.2 316.2 449.3 317.5L450.3 328.1H449.6Q448.5 323.7 446.1 321Q443.6 318.2 440.1 316.8Q436.5 315.4 432.2 315.4Q426.4 315.4 422.1 318.3Q417.8 321.1 415.4 326.4Q413.1 331.6 413.1 338.6Q413.1 345.5 415.4 350.7Q417.7 355.9 421.9 358.7Q426 361.5 431.7 361.6Q434.6 361.6 437.3 360.8Q440 360.1 442.3 358.7Q444.6 357.3 446.1 355.2L446.2 343.4Q446.2 340.2 442.6 340.2H441.5V339.6H457.2V340.2H456.1Q452.5 340.2 452.6 343.4ZM484.1 314H493.7Q496.9 314 499.6 314.8Q502.3 315.7 504.3 317.3Q506.2 319 507.3 321.4Q508.4 323.9 508.4 327.2Q508.4 330.4 507 333.4Q505.5 336.5 502.9 338.4Q500.2 340.4 496.7 340.5Q498.2 341.1 499.8 342.7Q501.3 344.3 502.4 345.9Q502.4 345.9 503.3 347.2Q504.2 348.4 505.5 350.3Q506.8 352.1 508.2 354Q509.6 355.8 510.6 357Q512 358.7 513.4 359.8Q514.7 361 516.3 361.6Q517.9 362.3 519.8 362.3V363H514.9Q511.6 363 509 362.1Q506.4 361.2 504.5 359.7Q502.6 358.2 501.3 356.5Q501 356 500.1 354.7Q499.3 353.3 498.2 351.6Q497.1 349.9 496 348.2Q495 346.6 494.2 345.3Q493.5 344.1 493.2 343.8Q492.1 341.9 490.6 340.5Q489.1 339.1 487.4 339.1V338.4Q487.4 338.4 488.4 338.4Q489.3 338.4 490.6 338.4Q492.4 338.3 494.5 337.7Q496.5 337.2 498.2 335.6Q500 333.9 500.8 330.8Q501 330.1 501.1 329.1Q501.2 328 501.2 326.9Q501.1 322.1 498.7 319.4Q496.4 316.7 492.6 316.5Q491 316.4 489.3 316.4Q487.5 316.4 486.2 316.4Q485 316.4 484.8 316.4Q484.8 316.4 484.7 315.8Q484.5 315.2 484.3 314.6Q484.1 314 484.1 314ZM485.1 314V363H478.5V314ZM478.8 357.9V363H473.2V362.3Q473.2 362.3 473.6 362.3Q474.1 362.3 474.1 362.3Q475.9 362.3 477.2 361Q478.5 359.7 478.5 357.9ZM478.8 319.1H478.5Q478.5 317.3 477.2 316Q475.9 314.7 474.1 314.7Q474.1 314.7 473.6 314.7Q473.2 314.7 473.2 314.7V314H478.8ZM484.8 357.9H485.1Q485.1 359.7 486.4 361Q487.7 362.3 489.5 362.3Q489.6 362.3 490 362.3Q490.4 362.3 490.4 362.3V363H484.8ZM554 312.9 575.5 362.6H567.3L551.7 321.8ZM539 357.9Q538.5 359.3 538.8 360.3Q539.2 361.2 540 361.8Q540.8 362.3 541.6 362.3H542.2V363H527.9V362.3Q527.9 362.3 528.2 362.3Q528.5 362.3 528.5 362.3Q530.1 362.3 531.8 361.3Q533.6 360.3 534.7 357.9ZM554 312.9 554.6 319 537.1 362.8H532.5L550.5 320.7Q550.6 320.6 551 319.6Q551.5 318.7 552 317.4Q552.5 316 553 314.8Q553.4 313.5 553.4 312.9ZM563 344.7V347.1H541.6V344.7ZM565.5 357.9H573.4Q574.5 360.3 576.2 361.3Q577.9 362.3 579.5 362.3Q579.5 362.3 579.8 362.3Q580.1 362.3 580.1 362.3V363H562.2V362.3H562.8Q564.2 362.3 565.3 361.1Q566.3 360 565.5 357.9ZM587.1 314.4H594.8L607.1 352.9L605 364ZM619.7 312.9 620.5 319 607.1 356.2Q607.1 356.2 606.8 357.4Q606.4 358.7 606 360.4Q605.7 362.2 605.6 364H605L603.4 357.1L619.1 312.9ZM619.7 312.9 634.7 351.8 632.5 364 616.5 322.7ZM647.7 314.4 634.6 356.2Q634.6 356.2 634.2 357.5Q633.9 358.7 633.5 360.5Q633.2 362.3 633.2 364H632.5L631.3 357.1L643.5 314.4ZM642.1 319Q642.7 316.9 641.8 315.8Q640.9 314.7 639.5 314.7H638.9V314H652.9V314.7Q652.9 314.7 652.6 314.7Q652.4 314.7 652.4 314.7Q650.8 314.7 648.9 315.7Q647 316.7 646.2 319ZM596.3 319H588.8Q588 316.7 586.1 315.7Q584.2 314.7 582.6 314.7Q582.6 314.7 582.4 314.7Q582.1 314.7 582.1 314.7V314H599.6V314.7H599Q597.6 314.7 596.6 315.8Q595.6 316.9 596.3 319ZM681 312.9 702.5 362.6H694.3L678.7 321.8ZM666 357.9Q665.5 359.3 665.8 360.3Q666.2 361.2 667 361.8Q667.8 362.3 668.6 362.3H669.2V363H654.9V362.3Q654.9 362.3 655.2 362.3Q655.5 362.3 655.5 362.3Q657.1 362.3 658.8 361.3Q660.6 360.3 661.7 357.9ZM681 312.9 681.6 319 664.1 362.8H659.5L677.5 320.7Q677.6 320.6 678 319.6Q678.5 318.7 679 317.4Q679.5 316 680 314.8Q680.4 313.5 680.4 312.9ZM690 344.7V347.1H668.6V344.7ZM692.5 357.9H700.4Q701.5 360.3 703.2 361.3Q704.9 362.3 706.5 362.3Q706.5 362.3 706.8 362.3Q707.1 362.3 707.1 362.3V363H689.2V362.3H689.8Q691.2 362.3 692.3 361.1Q693.3 360 692.5 357.9ZM732.3 314V363H725.8V314ZM751.1 360.6 751.6 363H732.1V360.6ZM755.6 350.7 751.8 363H739.5L742 360.6Q745.7 360.6 748.1 359.3Q750.6 358.1 752.2 355.9Q753.8 353.6 754.9 350.7ZM726 357.9V363H720.4V362.3Q720.4 362.3 720.9 362.3Q721.3 362.3 721.3 362.3Q723.1 362.3 724.4 361Q725.7 359.7 725.8 357.9ZM726 319.1H725.8Q725.7 317.3 724.4 316Q723.1 314.7 721.3 314.7Q721.3 314.7 720.9 314.7Q720.4 314.7 720.4 314.7V314H726ZM732.1 319.1V314H737.7V314.7Q737.6 314.7 737.2 314.7Q736.8 314.7 736.8 314.7Q735 314.7 733.7 316Q732.4 317.3 732.3 319.1Z"/></svg>
